<mxfile host="app.diagrams.net" modified="2022-03-25T16:37:20.761Z" agent="5.0 (Macintosh; Intel Mac OS X 10_15_7) AppleWebKit/537.36 (KHTML, like Gecko) Chrome/95.0.4638.69 Safari/537.36" etag="Unm9dHsQMOQVYu34ZIAZ" version="17.1.3" type="github" pages="2">
  <diagram id="0L9Fg00umyLuJMHlyUDf" name="HCMT">
    <mxGraphModel dx="1974" dy="841" grid="1" gridSize="10" guides="1" tooltips="1" connect="1" arrows="1" fold="1" page="1" pageScale="1" pageWidth="850" pageHeight="1100" math="0" shadow="0">
      <root>
        <mxCell id="0" />
        <mxCell id="1" parent="0" />
        <mxCell id="rSeW_cTTSjzpE_r_Ttbj-1" value="UI" style="rounded=0;whiteSpace=wrap;html=1;" vertex="1" parent="1">
          <mxGeometry x="30" y="200" width="120" height="60" as="geometry" />
        </mxCell>
        <mxCell id="rSeW_cTTSjzpE_r_Ttbj-2" value="HCMT&lt;br&gt;SpringBoot API (ASin)" style="rounded=0;whiteSpace=wrap;html=1;fillColor=#f8cecc;strokeColor=#b85450;" vertex="1" parent="1">
          <mxGeometry x="220" y="200" width="120" height="60" as="geometry" />
        </mxCell>
        <mxCell id="rSeW_cTTSjzpE_r_Ttbj-3" value="Healthcheck Springboot APIs" style="rounded=0;whiteSpace=wrap;html=1;fillColor=#60a917;strokeColor=#2D7600;fontColor=#ffffff;verticalAlign=top;fontStyle=1" vertex="1" parent="1">
          <mxGeometry x="430" y="150" width="360" height="520" as="geometry" />
        </mxCell>
        <mxCell id="rSeW_cTTSjzpE_r_Ttbj-4" value="oracle/&lt;br&gt;postgres" style="shape=cylinder3;whiteSpace=wrap;html=1;boundedLbl=1;backgroundOutline=1;size=15;" vertex="1" parent="1">
          <mxGeometry x="250" y="370" width="60" height="80" as="geometry" />
        </mxCell>
        <mxCell id="rSeW_cTTSjzpE_r_Ttbj-6" value="HEQ HC API" style="rounded=0;whiteSpace=wrap;html=1;fillColor=#d5e8d4;strokeColor=#82b366;verticalAlign=top;align=left;fontStyle=1" vertex="1" parent="1">
          <mxGeometry x="590" y="570" width="190" height="92" as="geometry" />
        </mxCell>
        <mxCell id="rSeW_cTTSjzpE_r_Ttbj-10" value="Jenkins&lt;br&gt;CURL Shell" style="rounded=0;whiteSpace=wrap;html=1;" vertex="1" parent="1">
          <mxGeometry x="860" y="385" width="120" height="50" as="geometry" />
        </mxCell>
        <mxCell id="rSeW_cTTSjzpE_r_Ttbj-11" value="&lt;br&gt;&lt;br&gt;&lt;br&gt;&lt;br&gt;&lt;br&gt;every 5 minutes" style="sketch=0;html=1;aspect=fixed;strokeColor=none;shadow=0;align=center;verticalAlign=top;fillColor=#3B8DF1;shape=mxgraph.gcp2.arrow_cycle" vertex="1" parent="1">
          <mxGeometry x="950" y="410" width="63.16" height="60" as="geometry" />
        </mxCell>
        <mxCell id="rSeW_cTTSjzpE_r_Ttbj-12" value="" style="shape=image;html=1;verticalAlign=top;verticalLabelPosition=bottom;labelBackgroundColor=#ffffff;imageAspect=0;aspect=fixed;image=https://cdn4.iconfinder.com/data/icons/socialcones/508/Gitlab-128.png" vertex="1" parent="1">
          <mxGeometry x="330" y="110" width="48" height="48" as="geometry" />
        </mxCell>
        <mxCell id="rSeW_cTTSjzpE_r_Ttbj-13" value="" style="endArrow=classic;html=1;rounded=0;" edge="1" parent="1" source="rSeW_cTTSjzpE_r_Ttbj-12" target="rSeW_cTTSjzpE_r_Ttbj-2">
          <mxGeometry width="50" height="50" relative="1" as="geometry">
            <mxPoint x="400" y="430" as="sourcePoint" />
            <mxPoint x="450" y="380" as="targetPoint" />
          </mxGeometry>
        </mxCell>
        <mxCell id="rSeW_cTTSjzpE_r_Ttbj-14" value="AJ" style="shape=image;html=1;verticalAlign=top;verticalLabelPosition=bottom;labelBackgroundColor=#ffffff;imageAspect=0;aspect=fixed;image=https://cdn4.iconfinder.com/data/icons/socialcones/508/Gitlab-128.png" vertex="1" parent="1">
          <mxGeometry x="440" y="526" width="48" height="48" as="geometry" />
        </mxCell>
        <mxCell id="rSeW_cTTSjzpE_r_Ttbj-15" value="" style="endArrow=classic;html=1;rounded=0;" edge="1" parent="1" source="rSeW_cTTSjzpE_r_Ttbj-14" target="rSeW_cTTSjzpE_r_Ttbj-6">
          <mxGeometry width="50" height="50" relative="1" as="geometry">
            <mxPoint x="400" y="430" as="sourcePoint" />
            <mxPoint x="450" y="380" as="targetPoint" />
          </mxGeometry>
        </mxCell>
        <mxCell id="rSeW_cTTSjzpE_r_Ttbj-16" value="" style="endArrow=classic;html=1;rounded=0;entryX=0;entryY=0.5;entryDx=0;entryDy=0;" edge="1" parent="1" source="rSeW_cTTSjzpE_r_Ttbj-14" target="rSeW_cTTSjzpE_r_Ttbj-5">
          <mxGeometry width="50" height="50" relative="1" as="geometry">
            <mxPoint x="568" y="495.0769230769231" as="sourcePoint" />
            <mxPoint x="640" y="492.3076923076924" as="targetPoint" />
          </mxGeometry>
        </mxCell>
        <mxCell id="rSeW_cTTSjzpE_r_Ttbj-19" value="get current status" style="curved=1;endArrow=classic;html=1;rounded=0;fillColor=#d5e8d4;strokeColor=#82b366;dashed=1;" edge="1" parent="1" source="rSeW_cTTSjzpE_r_Ttbj-1" target="rSeW_cTTSjzpE_r_Ttbj-3">
          <mxGeometry width="50" height="50" relative="1" as="geometry">
            <mxPoint x="400" y="430" as="sourcePoint" />
            <mxPoint x="450" y="380" as="targetPoint" />
            <Array as="points">
              <mxPoint x="180" y="40" />
              <mxPoint x="400" y="80" />
              <mxPoint x="540" y="20" />
            </Array>
          </mxGeometry>
        </mxCell>
        <mxCell id="rSeW_cTTSjzpE_r_Ttbj-31" value="" style="rounded=0;whiteSpace=wrap;html=1;dashed=1;strokeWidth=4;" vertex="1" parent="1">
          <mxGeometry x="680" y="212" width="100" height="450" as="geometry" />
        </mxCell>
        <mxCell id="rSeW_cTTSjzpE_r_Ttbj-21" value="AJ" style="endArrow=classic;html=1;rounded=0;entryX=1;entryY=0.5;entryDx=0;entryDy=0;entryPerimeter=0;" edge="1" parent="1" source="rSeW_cTTSjzpE_r_Ttbj-34" target="rSeW_cTTSjzpE_r_Ttbj-4">
          <mxGeometry width="50" height="50" relative="1" as="geometry">
            <mxPoint x="400" y="430" as="sourcePoint" />
            <mxPoint x="450" y="380" as="targetPoint" />
          </mxGeometry>
        </mxCell>
        <mxCell id="rSeW_cTTSjzpE_r_Ttbj-22" value="" style="endArrow=classic;html=1;rounded=0;entryX=1;entryY=0.5;entryDx=0;entryDy=0;exitX=0;exitY=0.5;exitDx=0;exitDy=0;" edge="1" parent="1" source="rSeW_cTTSjzpE_r_Ttbj-10" target="rSeW_cTTSjzpE_r_Ttbj-3">
          <mxGeometry width="50" height="50" relative="1" as="geometry">
            <mxPoint x="400" y="430" as="sourcePoint" />
            <mxPoint x="450" y="380" as="targetPoint" />
          </mxGeometry>
        </mxCell>
        <mxCell id="rSeW_cTTSjzpE_r_Ttbj-23" value="AJ" style="endArrow=classic;html=1;rounded=0;" edge="1" parent="1" source="rSeW_cTTSjzpE_r_Ttbj-4" target="rSeW_cTTSjzpE_r_Ttbj-2">
          <mxGeometry width="50" height="50" relative="1" as="geometry">
            <mxPoint x="400" y="430" as="sourcePoint" />
            <mxPoint x="450" y="380" as="targetPoint" />
          </mxGeometry>
        </mxCell>
        <mxCell id="rSeW_cTTSjzpE_r_Ttbj-24" value="" style="endArrow=classic;html=1;rounded=0;entryX=1;entryY=0.5;entryDx=0;entryDy=0;exitX=0;exitY=0.5;exitDx=0;exitDy=0;" edge="1" parent="1" source="rSeW_cTTSjzpE_r_Ttbj-2" target="rSeW_cTTSjzpE_r_Ttbj-1">
          <mxGeometry width="50" height="50" relative="1" as="geometry">
            <mxPoint x="400" y="430" as="sourcePoint" />
            <mxPoint x="450" y="380" as="targetPoint" />
          </mxGeometry>
        </mxCell>
        <mxCell id="rSeW_cTTSjzpE_r_Ttbj-25" value="gettoken" style="rounded=0;whiteSpace=wrap;html=1;fillColor=#6d8764;fontColor=#ffffff;strokeColor=#3A5431;" vertex="1" parent="1">
          <mxGeometry x="690" y="582" width="80" height="20" as="geometry" />
        </mxCell>
        <mxCell id="rSeW_cTTSjzpE_r_Ttbj-26" value="memlogin" style="rounded=0;whiteSpace=wrap;html=1;fillColor=#6d8764;fontColor=#ffffff;strokeColor=#3A5431;" vertex="1" parent="1">
          <mxGeometry x="690" y="602" width="80" height="20" as="geometry" />
        </mxCell>
        <mxCell id="rSeW_cTTSjzpE_r_Ttbj-27" value="HEQ" style="rounded=0;whiteSpace=wrap;html=1;fillColor=#6d8764;fontColor=#ffffff;strokeColor=#3A5431;" vertex="1" parent="1">
          <mxGeometry x="600" y="628" width="80" height="20" as="geometry" />
        </mxCell>
        <mxCell id="rSeW_cTTSjzpE_r_Ttbj-29" value="AAAA HC API" style="rounded=0;whiteSpace=wrap;html=1;fillColor=#d5e8d4;strokeColor=#82b366;verticalAlign=top;align=left;" vertex="1" parent="1">
          <mxGeometry x="590" y="300" width="190" height="60" as="geometry" />
        </mxCell>
        <mxCell id="rSeW_cTTSjzpE_r_Ttbj-30" value="AAAA HC API" style="rounded=0;whiteSpace=wrap;html=1;fillColor=#d5e8d4;strokeColor=#82b366;verticalAlign=top;align=left;" vertex="1" parent="1">
          <mxGeometry x="590" y="220" width="190" height="60" as="geometry" />
        </mxCell>
        <mxCell id="rSeW_cTTSjzpE_r_Ttbj-32" value="" style="aspect=fixed;perimeter=ellipsePerimeter;html=1;align=center;shadow=0;dashed=0;spacingTop=3;image;image=img/lib/active_directory/user_accounts.svg;strokeWidth=4;fillColor=none;gradientColor=none;" vertex="1" parent="1">
          <mxGeometry x="-50" y="205.75" width="50" height="48.5" as="geometry" />
        </mxCell>
        <mxCell id="rSeW_cTTSjzpE_r_Ttbj-33" value="" style="endArrow=classic;html=1;rounded=0;dashed=1;" edge="1" parent="1" source="rSeW_cTTSjzpE_r_Ttbj-32" target="rSeW_cTTSjzpE_r_Ttbj-1">
          <mxGeometry width="50" height="50" relative="1" as="geometry">
            <mxPoint x="520" y="430" as="sourcePoint" />
            <mxPoint x="570" y="380" as="targetPoint" />
          </mxGeometry>
        </mxCell>
        <mxCell id="rSeW_cTTSjzpE_r_Ttbj-7" value="AAAA HC API" style="rounded=0;whiteSpace=wrap;html=1;fillColor=#d5e8d4;strokeColor=#82b366;verticalAlign=top;align=left;" vertex="1" parent="1">
          <mxGeometry x="590" y="380" width="190" height="60" as="geometry" />
        </mxCell>
        <mxCell id="rSeW_cTTSjzpE_r_Ttbj-5" value="amwell sso&amp;nbsp;&lt;br&gt;health check&lt;br&gt;logic api" style="rounded=0;whiteSpace=wrap;html=1;fillColor=#d5e8d4;strokeColor=#82b366;verticalAlign=top;align=left;" vertex="1" parent="1">
          <mxGeometry x="590" y="470" width="190" height="78" as="geometry" />
        </mxCell>
        <mxCell id="rSeW_cTTSjzpE_r_Ttbj-34" value="DB Util" style="rounded=0;whiteSpace=wrap;html=1;dashed=1;strokeWidth=4;fillColor=#d5e8d4;strokeColor=#82b366;" vertex="1" parent="1">
          <mxGeometry x="440" y="385" width="120" height="60" as="geometry" />
        </mxCell>
        <mxCell id="rSeW_cTTSjzpE_r_Ttbj-35" value="" style="endArrow=classic;html=1;rounded=0;dashed=1;" edge="1" parent="1" source="rSeW_cTTSjzpE_r_Ttbj-6" target="rSeW_cTTSjzpE_r_Ttbj-34">
          <mxGeometry width="50" height="50" relative="1" as="geometry">
            <mxPoint x="450" y="430" as="sourcePoint" />
            <mxPoint x="500" y="380" as="targetPoint" />
          </mxGeometry>
        </mxCell>
      </root>
    </mxGraphModel>
  </diagram>
  <diagram id="Mmxpbf1JdyFrKV1Dd0FB" name="LEMT">
    <mxGraphModel dx="1749" dy="673" grid="1" gridSize="10" guides="1" tooltips="1" connect="1" arrows="1" fold="1" page="1" pageScale="1" pageWidth="850" pageHeight="1100" math="0" shadow="0">
      <root>
        <mxCell id="bVva47EWJvNujpDzpb49-0" />
        <mxCell id="bVva47EWJvNujpDzpb49-1" parent="bVva47EWJvNujpDzpb49-0" />
        <mxCell id="bVva47EWJvNujpDzpb49-18" value="Py Simplifier" style="shape=process;whiteSpace=wrap;html=1;backgroundOutline=1;strokeWidth=1;fillColor=#dae8fc;verticalAlign=top;fontStyle=1;strokeColor=#6c8ebf;" vertex="1" parent="bVva47EWJvNujpDzpb49-1">
          <mxGeometry x="480" y="208.5" width="120" height="81.5" as="geometry" />
        </mxCell>
        <mxCell id="bVva47EWJvNujpDzpb49-2" value="UI" style="rounded=0;whiteSpace=wrap;html=1;strokeWidth=1;fillColor=none;gradientColor=none;verticalAlign=top;align=center;fontStyle=1" vertex="1" parent="bVva47EWJvNujpDzpb49-1">
          <mxGeometry x="-100" y="120" width="120" height="270" as="geometry" />
        </mxCell>
        <mxCell id="bVva47EWJvNujpDzpb49-3" value="Phython API" style="rounded=0;whiteSpace=wrap;html=1;strokeWidth=1;fillColor=none;gradientColor=none;verticalAlign=top;fontStyle=1" vertex="1" parent="bVva47EWJvNujpDzpb49-1">
          <mxGeometry x="80" y="120" width="120" height="270" as="geometry" />
        </mxCell>
        <mxCell id="bVva47EWJvNujpDzpb49-13" value="" style="sketch=0;pointerEvents=1;shadow=0;dashed=0;html=1;strokeColor=none;fillColor=#434445;aspect=fixed;labelPosition=center;verticalLabelPosition=bottom;verticalAlign=top;align=center;outlineConnect=0;shape=mxgraph.vvd.log_files;" vertex="1" parent="bVva47EWJvNujpDzpb49-1">
          <mxGeometry x="251" y="256.5" width="28" height="35" as="geometry" />
        </mxCell>
        <mxCell id="bVva47EWJvNujpDzpb49-14" value="" style="sketch=0;pointerEvents=1;shadow=0;dashed=0;html=1;strokeColor=none;fillColor=#434445;aspect=fixed;labelPosition=center;verticalLabelPosition=bottom;verticalAlign=top;align=center;outlineConnect=0;shape=mxgraph.vvd.log_files;" vertex="1" parent="bVva47EWJvNujpDzpb49-1">
          <mxGeometry x="291" y="291.5" width="28" height="35" as="geometry" />
        </mxCell>
        <mxCell id="bVva47EWJvNujpDzpb49-15" value="" style="sketch=0;pointerEvents=1;shadow=0;dashed=0;html=1;strokeColor=none;fillColor=#434445;aspect=fixed;labelPosition=center;verticalLabelPosition=bottom;verticalAlign=top;align=center;outlineConnect=0;shape=mxgraph.vvd.log_files;" vertex="1" parent="bVva47EWJvNujpDzpb49-1">
          <mxGeometry x="251" y="311.5" width="28" height="35" as="geometry" />
        </mxCell>
        <mxCell id="bVva47EWJvNujpDzpb49-16" value="" style="sketch=0;pointerEvents=1;shadow=0;dashed=0;html=1;strokeColor=none;fillColor=#434445;aspect=fixed;labelPosition=center;verticalLabelPosition=bottom;verticalAlign=top;align=center;outlineConnect=0;shape=mxgraph.vvd.log_files;" vertex="1" parent="bVva47EWJvNujpDzpb49-1">
          <mxGeometry x="291" y="349" width="28" height="35" as="geometry" />
        </mxCell>
        <mxCell id="bVva47EWJvNujpDzpb49-17" value="CRON&lt;br&gt;downloader" style="shape=process;whiteSpace=wrap;html=1;backgroundOutline=1;strokeWidth=1;fillColor=#d5e8d4;strokeColor=#82b366;" vertex="1" parent="bVva47EWJvNujpDzpb49-1">
          <mxGeometry x="480" y="290.75" width="120" height="60" as="geometry" />
        </mxCell>
        <mxCell id="bVva47EWJvNujpDzpb49-19" value="IIB Server" style="rounded=0;whiteSpace=wrap;html=1;strokeWidth=1;fillColor=none;gradientColor=none;verticalAlign=top;fontStyle=1" vertex="1" parent="bVva47EWJvNujpDzpb49-1">
          <mxGeometry x="710" y="125" width="100" height="210" as="geometry" />
        </mxCell>
        <mxCell id="bVva47EWJvNujpDzpb49-20" value="" style="sketch=0;pointerEvents=1;shadow=0;dashed=0;html=1;strokeColor=none;fillColor=#434445;aspect=fixed;labelPosition=center;verticalLabelPosition=bottom;verticalAlign=top;align=center;outlineConnect=0;shape=mxgraph.vvd.log_files;" vertex="1" parent="bVva47EWJvNujpDzpb49-1">
          <mxGeometry x="726" y="165" width="28" height="35" as="geometry" />
        </mxCell>
        <mxCell id="bVva47EWJvNujpDzpb49-21" value="" style="sketch=0;pointerEvents=1;shadow=0;dashed=0;html=1;strokeColor=none;fillColor=#434445;aspect=fixed;labelPosition=center;verticalLabelPosition=bottom;verticalAlign=top;align=center;outlineConnect=0;shape=mxgraph.vvd.log_files;" vertex="1" parent="bVva47EWJvNujpDzpb49-1">
          <mxGeometry x="766" y="200" width="28" height="35" as="geometry" />
        </mxCell>
        <mxCell id="bVva47EWJvNujpDzpb49-22" value="" style="sketch=0;pointerEvents=1;shadow=0;dashed=0;html=1;strokeColor=none;fillColor=#434445;aspect=fixed;labelPosition=center;verticalLabelPosition=bottom;verticalAlign=top;align=center;outlineConnect=0;shape=mxgraph.vvd.log_files;" vertex="1" parent="bVva47EWJvNujpDzpb49-1">
          <mxGeometry x="726" y="220" width="28" height="35" as="geometry" />
        </mxCell>
        <mxCell id="bVva47EWJvNujpDzpb49-23" value="" style="sketch=0;pointerEvents=1;shadow=0;dashed=0;html=1;strokeColor=none;fillColor=#434445;aspect=fixed;labelPosition=center;verticalLabelPosition=bottom;verticalAlign=top;align=center;outlineConnect=0;shape=mxgraph.vvd.log_files;" vertex="1" parent="bVva47EWJvNujpDzpb49-1">
          <mxGeometry x="766" y="257.5" width="28" height="35" as="geometry" />
        </mxCell>
        <mxCell id="bVva47EWJvNujpDzpb49-24" value="&lt;br&gt;&lt;br&gt;Every 15 minutes" style="sketch=0;html=1;aspect=fixed;strokeColor=none;shadow=0;align=center;verticalAlign=top;fillColor=#3B8DF1;shape=mxgraph.gcp2.arrow_cycle" vertex="1" parent="bVva47EWJvNujpDzpb49-1">
          <mxGeometry x="580" y="335" width="31.58" height="30" as="geometry" />
        </mxCell>
        <mxCell id="bVva47EWJvNujpDzpb49-25" value="" style="endArrow=classic;html=1;rounded=0;dashed=1;exitX=0;exitY=0.5;exitDx=0;exitDy=0;entryX=1;entryY=0.5;entryDx=0;entryDy=0;" edge="1" parent="bVva47EWJvNujpDzpb49-1" source="bVva47EWJvNujpDzpb49-19" target="bVva47EWJvNujpDzpb49-17">
          <mxGeometry width="50" height="50" relative="1" as="geometry">
            <mxPoint x="510" y="505" as="sourcePoint" />
            <mxPoint x="670" y="225" as="targetPoint" />
          </mxGeometry>
        </mxCell>
        <mxCell id="bVva47EWJvNujpDzpb49-26" value="" style="endArrow=classic;html=1;rounded=0;dashed=1;exitX=0;exitY=0.5;exitDx=0;exitDy=0;entryX=1;entryY=0.5;entryDx=0;entryDy=0;fillColor=#008a00;strokeColor=#005700;" edge="1" parent="bVva47EWJvNujpDzpb49-1" source="bVva47EWJvNujpDzpb49-17" target="TsjncPqA7fYqnxqj1fCa-0">
          <mxGeometry width="50" height="50" relative="1" as="geometry">
            <mxPoint x="690" y="245" as="sourcePoint" />
            <mxPoint x="650" y="240" as="targetPoint" />
          </mxGeometry>
        </mxCell>
        <mxCell id="bVva47EWJvNujpDzpb49-27" value="" style="endArrow=classic;html=1;rounded=0;dashed=1;exitX=0;exitY=0.5;exitDx=0;exitDy=0;entryX=1;entryY=0.5;entryDx=0;entryDy=0;fillColor=#0050ef;strokeColor=#001DBC;" edge="1" parent="bVva47EWJvNujpDzpb49-1" source="bVva47EWJvNujpDzpb49-18" target="bVva47EWJvNujpDzpb49-4">
          <mxGeometry width="50" height="50" relative="1" as="geometry">
            <mxPoint x="530" y="205" as="sourcePoint" />
            <mxPoint x="490" y="215" as="targetPoint" />
          </mxGeometry>
        </mxCell>
        <mxCell id="bVva47EWJvNujpDzpb49-28" value="" style="endArrow=classic;html=1;rounded=0;dashed=1;entryX=0;entryY=0.5;entryDx=0;entryDy=0;exitX=1;exitY=0.5;exitDx=0;exitDy=0;" edge="1" parent="bVva47EWJvNujpDzpb49-1" source="bVva47EWJvNujpDzpb49-36" target="bVva47EWJvNujpDzpb49-4">
          <mxGeometry width="50" height="50" relative="1" as="geometry">
            <mxPoint x="230" y="210" as="sourcePoint" />
            <mxPoint x="330" y="185" as="targetPoint" />
          </mxGeometry>
        </mxCell>
        <mxCell id="bVva47EWJvNujpDzpb49-29" value="" style="endArrow=classic;html=1;rounded=0;dashed=1;exitX=0;exitY=0.5;exitDx=0;exitDy=0;entryX=1;entryY=0.5;entryDx=0;entryDy=0;" edge="1" parent="bVva47EWJvNujpDzpb49-1" source="bVva47EWJvNujpDzpb49-37" target="bVva47EWJvNujpDzpb49-35">
          <mxGeometry width="50" height="50" relative="1" as="geometry">
            <mxPoint x="240" y="185" as="sourcePoint" />
            <mxPoint x="20" y="160" as="targetPoint" />
          </mxGeometry>
        </mxCell>
        <mxCell id="bVva47EWJvNujpDzpb49-31" value="" style="aspect=fixed;perimeter=ellipsePerimeter;html=1;align=center;shadow=0;dashed=0;spacingTop=3;image;image=img/lib/active_directory/user_accounts.svg;strokeWidth=1;fillColor=none;gradientColor=none;" vertex="1" parent="bVva47EWJvNujpDzpb49-1">
          <mxGeometry x="-220" y="230" width="50" height="48.5" as="geometry" />
        </mxCell>
        <mxCell id="bVva47EWJvNujpDzpb49-32" value="" style="endArrow=classic;html=1;rounded=0;dashed=1;exitX=1;exitY=0.5;exitDx=0;exitDy=0;entryX=0;entryY=0.5;entryDx=0;entryDy=0;" edge="1" parent="bVva47EWJvNujpDzpb49-1" source="bVva47EWJvNujpDzpb49-31" target="bVva47EWJvNujpDzpb49-2">
          <mxGeometry width="50" height="50" relative="1" as="geometry">
            <mxPoint x="460" y="450" as="sourcePoint" />
            <mxPoint x="510" y="400" as="targetPoint" />
          </mxGeometry>
        </mxCell>
        <mxCell id="bVva47EWJvNujpDzpb49-33" value="" style="endArrow=none;dashed=1;html=1;dashPattern=1 3;strokeWidth=2;rounded=0;" edge="1" parent="bVva47EWJvNujpDzpb49-1">
          <mxGeometry width="50" height="50" relative="1" as="geometry">
            <mxPoint x="380" y="402.5" as="sourcePoint" />
            <mxPoint x="380" y="32.5" as="targetPoint" />
          </mxGeometry>
        </mxCell>
        <mxCell id="bVva47EWJvNujpDzpb49-34" value="ERRor" style="rounded=0;whiteSpace=wrap;html=1;strokeWidth=1;fillColor=none;gradientColor=none;" vertex="1" parent="bVva47EWJvNujpDzpb49-1">
          <mxGeometry x="-90" y="155" width="100" height="60" as="geometry" />
        </mxCell>
        <mxCell id="bVva47EWJvNujpDzpb49-35" value="All (err+info)" style="rounded=0;whiteSpace=wrap;html=1;strokeWidth=1;fillColor=none;gradientColor=none;" vertex="1" parent="bVva47EWJvNujpDzpb49-1">
          <mxGeometry x="-90" y="230" width="100" height="60" as="geometry" />
        </mxCell>
        <mxCell id="bVva47EWJvNujpDzpb49-36" value="fetchError (userid, mess)" style="rounded=0;whiteSpace=wrap;html=1;strokeWidth=1;fillColor=none;gradientColor=none;" vertex="1" parent="bVva47EWJvNujpDzpb49-1">
          <mxGeometry x="90" y="155" width="100" height="60" as="geometry" />
        </mxCell>
        <mxCell id="bVva47EWJvNujpDzpb49-37" value="fetchAll (userid, mess)" style="rounded=0;whiteSpace=wrap;html=1;strokeWidth=1;fillColor=none;gradientColor=none;" vertex="1" parent="bVva47EWJvNujpDzpb49-1">
          <mxGeometry x="90" y="230" width="100" height="60" as="geometry" />
        </mxCell>
        <mxCell id="bVva47EWJvNujpDzpb49-38" value="" style="endArrow=classic;html=1;rounded=0;dashed=1;exitX=0;exitY=0.5;exitDx=0;exitDy=0;entryX=1;entryY=0.5;entryDx=0;entryDy=0;" edge="1" parent="bVva47EWJvNujpDzpb49-1" source="bVva47EWJvNujpDzpb49-36" target="bVva47EWJvNujpDzpb49-34">
          <mxGeometry width="50" height="50" relative="1" as="geometry">
            <mxPoint x="100" y="292.5" as="sourcePoint" />
            <mxPoint x="20" y="270" as="targetPoint" />
          </mxGeometry>
        </mxCell>
        <mxCell id="bVva47EWJvNujpDzpb49-41" value="" style="group" vertex="1" connectable="0" parent="bVva47EWJvNujpDzpb49-1">
          <mxGeometry x="240" y="120" width="90" height="120" as="geometry" />
        </mxCell>
        <mxCell id="bVva47EWJvNujpDzpb49-4" value="" style="rounded=0;whiteSpace=wrap;html=1;strokeWidth=1;fillColor=none;gradientColor=none;" vertex="1" parent="bVva47EWJvNujpDzpb49-41">
          <mxGeometry width="90" height="120" as="geometry" />
        </mxCell>
        <mxCell id="bVva47EWJvNujpDzpb49-5" value="" style="shape=image;html=1;verticalAlign=top;verticalLabelPosition=bottom;labelBackgroundColor=#ffffff;imageAspect=0;aspect=fixed;image=https://cdn1.iconfinder.com/data/icons/bootstrap-vol-3/16/filetype-csv-128.png;strokeWidth=1;fillColor=none;gradientColor=none;" vertex="1" parent="bVva47EWJvNujpDzpb49-41">
          <mxGeometry x="10" y="8.450704225352112" width="27.04225352112676" height="27.04225352112676" as="geometry" />
        </mxCell>
        <mxCell id="bVva47EWJvNujpDzpb49-6" value="" style="shape=image;html=1;verticalAlign=top;verticalLabelPosition=bottom;labelBackgroundColor=#ffffff;imageAspect=0;aspect=fixed;image=https://cdn1.iconfinder.com/data/icons/bootstrap-vol-3/16/filetype-csv-128.png;strokeWidth=1;fillColor=none;gradientColor=none;" vertex="1" parent="bVva47EWJvNujpDzpb49-41">
          <mxGeometry x="10" y="49.014084507042256" width="27.04225352112676" height="27.04225352112676" as="geometry" />
        </mxCell>
        <mxCell id="bVva47EWJvNujpDzpb49-8" value="" style="shape=image;html=1;verticalAlign=top;verticalLabelPosition=bottom;labelBackgroundColor=#ffffff;imageAspect=0;aspect=fixed;image=https://cdn3.iconfinder.com/data/icons/cad-database-presentation-spreadsheet-vector-fil-2/512/19-128.png;strokeWidth=1;fillColor=none;gradientColor=none;" vertex="1" parent="bVva47EWJvNujpDzpb49-41">
          <mxGeometry x="50" y="11.830985915492958" width="20.281690140845072" height="20.281690140845072" as="geometry" />
        </mxCell>
        <mxCell id="bVva47EWJvNujpDzpb49-9" value="" style="shape=image;html=1;verticalAlign=top;verticalLabelPosition=bottom;labelBackgroundColor=#ffffff;imageAspect=0;aspect=fixed;image=https://cdn3.iconfinder.com/data/icons/cad-database-presentation-spreadsheet-vector-fil-2/512/19-128.png;strokeWidth=1;fillColor=none;gradientColor=none;" vertex="1" parent="bVva47EWJvNujpDzpb49-41">
          <mxGeometry x="50" y="52.394366197183096" width="20.281690140845072" height="20.281690140845072" as="geometry" />
        </mxCell>
        <mxCell id="TsjncPqA7fYqnxqj1fCa-0" value="" style="rounded=0;whiteSpace=wrap;html=1;strokeWidth=1;fillColor=none;gradientColor=none;" vertex="1" parent="bVva47EWJvNujpDzpb49-1">
          <mxGeometry x="240" y="251.5" width="90" height="138.5" as="geometry" />
        </mxCell>
        <mxCell id="TsjncPqA7fYqnxqj1fCa-5" value="" style="endArrow=classic;html=1;rounded=0;dashed=1;entryX=0;entryY=0.5;entryDx=0;entryDy=0;exitX=1;exitY=0.5;exitDx=0;exitDy=0;" edge="1" parent="bVva47EWJvNujpDzpb49-1" source="bVva47EWJvNujpDzpb49-37" target="TsjncPqA7fYqnxqj1fCa-0">
          <mxGeometry width="50" height="50" relative="1" as="geometry">
            <mxPoint x="210" y="340" as="sourcePoint" />
            <mxPoint x="340" y="190" as="targetPoint" />
          </mxGeometry>
        </mxCell>
        <mxCell id="TsjncPqA7fYqnxqj1fCa-6" value="" style="endArrow=classic;html=1;rounded=0;dashed=1;exitX=1;exitY=0.5;exitDx=0;exitDy=0;fillColor=#0050ef;strokeColor=#001DBC;" edge="1" parent="bVva47EWJvNujpDzpb49-1" source="TsjncPqA7fYqnxqj1fCa-0" target="bVva47EWJvNujpDzpb49-18">
          <mxGeometry width="50" height="50" relative="1" as="geometry">
            <mxPoint x="200" y="320" as="sourcePoint" />
            <mxPoint x="250" y="270" as="targetPoint" />
            <Array as="points">
              <mxPoint x="410" y="270" />
            </Array>
          </mxGeometry>
        </mxCell>
      </root>
    </mxGraphModel>
  </diagram>
</mxfile>
